<svg xmlns="http://www.w3.org/2000/svg" xmlns:xlink="http://www.w3.org/1999/xlink" version="1.1" id="Layer_1" x="0px" y="0px" viewBox="0 0 512 512" style="enable-background:new 0 0 512 512;" xml:space="preserve">
<style type="text/css">
	.st0{clip-path:url(#SVGID_00000143610183679700714630000004580472513257976224_);fill:#C29B35;}
	.st1{clip-path:url(#SVGID_00000143610183679700714630000004580472513257976224_);}
</style>
<g>
	<g>
		<defs>
			<rect id="SVGID_1_" y="0" width="512" height="512"/>
		</defs>
		<clipPath id="SVGID_00000176034995900347568280000011871917856318883250_">
			<use xlink:href="#SVGID_1_" style="overflow:visible;"/>
		</clipPath>
		<path style="clip-path:url(#SVGID_00000176034995900347568280000011871917856318883250_);fill:#C29B35;" d="M247.9,349.8    L247.9,349.8L247.9,349.8L247.9,349.8c2.2,2.2,5.2,3.5,8.5,3.5c3.3,0,6.3-1.4,8.5-3.5l63.8-64c4.7-4.7,4.7-12.3,0-17    c-4.7-4.7-12.3-4.7-17,0l-43.3,43.4v-227c0-6.6-5.4-12-12-12s-12,5.4-12,12v227.1l-43.8-43.6c-4.7-4.7-12.3-4.7-17,0    c-4.7,4.7-4.7,12.3,0,17L247.9,349.8z"/>
		<path style="clip-path:url(#SVGID_00000176034995900347568280000011871917856318883250_);" d="M469.3,329.3c-6.6,0-12,5.4-12,12    V384c0,16.9-13.8,30.7-30.7,30.7H85.3c-16.9,0-30.7-13.8-30.7-30.7v-42.7c0-6.6-5.4-12-12-12s-12,5.4-12,12V384    c0,30.1,24.5,54.7,54.7,54.7h341.3c30.2,0,54.7-24.5,54.7-54.7v-42.7C481.3,334.7,476,329.3,469.3,329.3z"/>
	</g>
</g>
</svg>