<svg xmlns="http://www.w3.org/2000/svg" xmlns:xlink="http://www.w3.org/1999/xlink" version="1.1" id="圖層_1" x="0px" y="0px" viewBox="0 0 512 512" style="enable-background:new 0 0 512 512;" xml:space="preserve">
<style type="text/css">
	.st0{fill:#C29B35;}
</style>
<path d="M486.5,456h-5V229.5c0-4.1-3.4-7.5-7.5-7.5s-7.5,3.4-7.5,7.5V456h-75V173.5c0-1.4,1.1-2.5,2.5-2.5h70c1.4,0,2.5,1.1,2.5,2.5  v26c0,4.1,3.4,7.5,7.5,7.5s7.5-3.4,7.5-7.5v-26c0-9.7-7.8-17.5-17.5-17.5h-70c-9.7,0-17.5,7.8-17.5,17.5V456h-10.3V263.5  c0-9.7-7.8-17.5-17.5-17.5h-70c-9.7,0-17.5,7.8-17.5,17.5V456h-10.3V213.5c0-9.7-7.8-17.5-17.5-17.5h-70c-9.7,0-17.5,7.8-17.5,17.5  V456h-10.3V343.5c0-9.7-7.8-17.5-17.5-17.5H48c-9.7,0-17.5,7.8-17.5,17.5v97c0,4.1,3.4,7.5,7.5,7.5s7.5-3.4,7.5-7.5v-97  c0-1.4,1.1-2.5,2.5-2.5h70c1.4,0,2.5,1.1,2.5,2.5V456h-95c-4.1,0-7.5,3.4-7.5,7.5s3.4,7.5,7.5,7.5h461c4.1,0,7.5-3.4,7.5-7.5  S490.6,456,486.5,456z M160.8,456V213.5c0-1.4,1.1-2.5,2.5-2.5h70c1.4,0,2.5,1.1,2.5,2.5V456H160.8z M276.2,456V263.5  c0-1.4,1.1-2.5,2.5-2.5h70c1.4,0,2.5,1.1,2.5,2.5V456H276.2z"/>
<path class="st0" d="M429,41c-15.2,0-27.5,12.3-27.5,27.5c0,4.6,1.1,9.1,3.3,13.1l-71.2,58c-10.4-11-27.8-11.5-38.8-1  c-0.8,0.7-1.5,1.5-2.2,2.4l-66.8-32c0-0.1,0-0.2,0-0.4c0-15.2-12.3-27.5-27.5-27.5c-15.2,0-27.5,12.3-27.5,27.5  c0,4.8,1.2,9.5,3.6,13.7L93.2,213c-14.1-5.7-30.2,1.2-35.8,15.3c-5.7,14.1,1.2,30.2,15.3,35.8s30.2-1.2,35.8-15.3  c3.6-8.9,2.3-18.9-3.4-26.6l80.1-89.5c12.6,6.9,28.5,2.9,36.3-9.3l65,31.2c-2.2,15,8.2,29,23.3,31.2s29-8.2,31.2-23.3  c0.4-3.1,0.4-6.2-0.2-9.3l74.7-60.8c13.2,7.5,30,2.9,37.5-10.2c7.5-13.2,2.9-30-10.2-37.5C438.5,42.2,433.8,41,429,41z M83,251  c-6.9,0-12.5-5.6-12.5-12.5S76.1,226,83,226s12.5,5.6,12.5,12.5l0,0C95.5,245.4,89.9,251,83,251z M198.3,121  c-6.9,0-12.5-5.6-12.5-12.5S191.4,96,198.3,96s12.5,5.6,12.5,12.5l0,0C210.8,115.4,205.2,121,198.3,121z M313.7,171  c-6.9,0-12.5-5.6-12.5-12.5s5.6-12.5,12.5-12.5s12.5,5.6,12.5,12.5l0,0C326.2,165.4,320.6,171,313.7,171z M429,81  c-6.9,0-12.5-5.6-12.5-12.5S422.1,56,429,56s12.5,5.6,12.5,12.5C441.5,75.4,435.9,81,429,81z"/>
</svg>