<svg xmlns="http://www.w3.org/2000/svg" xmlns:xlink="http://www.w3.org/1999/xlink" version="1.1" id="分離模式" x="0px" y="0px" viewBox="0 0 512 512" style="enable-background:new 0 0 512 512;" xml:space="preserve">
<style type="text/css">
	.st0{fill:#C29B35;}
</style>
<g>
	<path d="M330.1,162.8C280.3,89.6,213.8,50.6,179,74.5c-3.8,2.7-7.2,6.1-9.8,9.9c0,0.3-80.6,163.4-80.6,163.4l-45,30.5   c-29.1,19.7-36.6,59.3-16.9,88.3c0,0,0,0,0,0l2,3c19.7,28.8,59,36.3,87.9,16.9L188.9,493c10.6,13.1,31.1,26.2,56.3,10.8   c9-5.9,15.2-15.3,16.9-25.9c2.1-10.6-0.2-21.5-6.2-30.4l-63.7-94c0,0,150.6-12,151.1-12.2c4.7-1,9.2-2.9,13.1-5.6   c17.9-12.2,24.3-37.6,18.1-71.8C368.9,232.5,353.1,196.9,330.1,162.8L330.1,162.8z M45,358.6l-2-3c-13.6-20-8.4-47.3,11.6-60.9   c0,0,0,0,0.1-0.1l38.9-26.4l51.3,75.6L106,370.2C86,383.8,58.7,378.6,45,358.6C45,358.6,45,358.6,45,358.6z M239.6,458.7   c6.4,9.5,3.9,22.4-5.6,28.9c-9.5,6.4-22.5,3.9-28.9-5.6L133,375.7l29-19.7l7.7-0.6L239.6,458.7z M163.5,336.1l-55.9-82.4L160.9,145   c5.2,30.6,20.3,66.8,44.5,102.5s52.3,63.1,78.8,79.2L163.5,336.1z M329.5,323c-26.9-1.7-70.7-32.1-107.7-86.7   S172.6,130,180.9,104.3c3.1-9.9,12.1-16.7,22.5-16.9c26.7,0,72.1,30.5,110.2,86.7c21.5,31.6,37.1,64.7,41.4,93.6   C363.4,323,329.5,323,329.5,323z"/>
	<path d="M259.8,164.9c-13.9-2.7-28.4,0.2-40.1,8.3c-4.5,3.1-5.6,9.3-2.5,13.8c3.1,4.5,9.3,5.6,13.8,2.5l0,0   c15.4-10.5,36.4-6.5,46.9,9c10.5,15.4,6.5,36.4-9,46.9c-4.5,3.1-5.6,9.2-2.5,13.7c1.8,2.7,4.9,4.3,8.1,4.3c2,0,4-0.6,5.6-1.7   c24.4-16.5,30.8-49.7,14.3-74.2c-8-11.8-20.3-19.9-34.2-22.5L259.8,164.9z"/>
	<path class="st0" d="M342.3,94.4h1c5,0,9.3-3.8,9.8-8.8l7.6-73.8c0.7-5.4-3.1-10.3-8.5-11.1c-5.4-0.7-10.3,3.1-11.1,8.5   c0,0.2,0,0.4-0.1,0.6l-7.5,73.9C332.9,89,336.8,93.8,342.3,94.4L342.3,94.4z"/>
	<path class="st0" d="M469.5,79.2c-3-4.5-9.1-5.8-13.7-2.8l-68.6,45c-4.5,3-5.8,9.1-2.8,13.6c1.9,2.8,5,4.5,8.4,4.4   c2,0,3.9-0.5,5.6-1.6l68.6-45C471.5,89.7,472.6,83.6,469.5,79.2L469.5,79.2z"/>
	<path class="st0" d="M490.5,199.3L410.7,185c-5.4-1-10.5,2.6-11.4,8c-1,5.4,2.6,10.5,8,11.4l79.7,14.3h1.7c5.4,0.2,10-4.1,10.1-9.6   c0.1-5-3.5-9.3-8.4-10L490.5,199.3z"/>
</g>
</svg>