<svg xmlns="http://www.w3.org/2000/svg" xmlns:xlink="http://www.w3.org/1999/xlink" version="1.1" id="圖層_1" x="0px" y="0px" viewBox="0 0 200 60" style="enable-background:new 0 0 200 60;" xml:space="preserve">
<style type="text/css">
	.st0{fill:#FFFFFF;}
</style>
<g>
	<path class="st0" d="M112.3,38.3c-1.2,0-3.6-0.3-3.7-1.3c-0.4-0.4,0.5-2.5,1.9-1.1c0.2,0,0.5,0.2,0.8,0.3c1.6,0.7,2.1-0.2,2.2-1.4   c0-1.6-0.1-4.1-0.2-4.8c0-0.3-0.3-0.6-0.7-0.4c0,0-0.7,0.5-1.8,1.3c-2.5,1.8-6.5,5.1-10.2,5c-0.8,0-1.5-0.3-1.4-0.9   c0-0.5,0.5-0.9,1.4-0.6c0,0.2,0.5,0.2,0.9,0c1.9-0.6,3.7-1.6,5.3-2.7c1.5-1,3.1-2.2,4.4-3.3c0.7-0.5,1.6-1.4,1.6-1.4   c-1.1,0.6-3-0.5-2.7-1.6c-0.5,0.2-1,0.5-1.6,0.4c-1.8-0.4-2.4-3.2-2.7-4.3c-0.2-1-0.5-4.3,0.9-4.6c2.3-0.5,2,2,1.9,3.2   c0,1.3,0,2.8,0.7,3.1c0,0.4,0.9-0.5,1,0.8c0.1,0,0.1,0,0.1,0.2c0.7,0,1.8,0.2,2.3-0.3c0.3-0.3,0.3-0.7,0.1-1.2   c-1.1,0-2.2-0.3-2.5-1.6c0.2,0,2.9-0.9,2.7-0.9c0-0.5-0.2-0.9-0.4-1c-0.5-0.2-1,0.6-1.6,0.5c-1.3,0-1.5-2.6-0.8-2.8   c0-0.1,1.8-0.9,2.6-1.5c0.7-0.5,1-1.4-1-0.9c-1.1,0.4-2.1,0.7-2.4,1.1c-0.4,0.2-0.7,0.4-1.4-0.2c-0.6-0.3-2.3-1.6-2.3-2.5   c-0.1-1.8,1.7-2.5,3.6-2.2c0.5,0.1,2.2,0.1,3.2-0.2c1.3-0.4,0.8-1.7,0.8-2.6c0-0.3,0-0.7,0-1c-0.3-3.9,3.8-3.6,3.1,0.2   c-0.2,1.2-0.5,2.7-0.4,2.8c0,0.4,1.9,0,3.4-0.3c1.6-0.3,2.3-0.4,1.8,1.2c-0.1,0.5-0.6,1-1,1.1c0,0-4.9,1-4.8,1.8   c-0.1,0.3,0.2,0.8,0.9,0.8c2.2,0,4.5-0.3,5.7,1.8c1.2,2,0.2,3.1-1.3,4.6c-0.6,0.6-1.1,1.1-1.3,1.1c0,0.1-0.4,0.2-0.4,0.4   c-0.4,0-0.2,0.9-0.2,1.5c-0.1,0.9-0.9,0.7-1.6,1.2c-0.2,0.2-0.4,0.5-0.2,1.3c0.2,0.6,1.6,1.7,2.9,2c0.7,0.2,2.9,0.6,5,0.9   c1.1,0.2,2.6,0.2,3.7,0.5c0.5,0.1,0.9,0.3,0.8,0.6c-0.7,0.1-1.7,1.1-2.3,1.6c-2,1.4-2.8,1.2-3.4,1c-3-0.9-4.9-2-7.5-3.6   c-0.6-0.4-1.1-0.6-1.1-0.3c0.2,0.7,0,3.3,0.5,5.3c0.4,1.6,1,1.6,0,3.4C114.9,38.9,113.6,39.4,112.3,38.3L112.3,38.3z M115.3,23.4   c0.9,0,2-1.4,2.7-2.5s2.2-3.5-0.5-3.5c-0.6,0-1.3,0.2-1.6,0.3c-0.4,0.1-0.5,0.5-0.4,1.7c1-0.1,1.8,0.4,1.4,1.4   c-0.2,0.8-1.1,0.6-1.5,1.1C115.3,22.2,115.2,22.7,115.3,23.4z"/>
	<path class="st0" d="M173.2,38c-0.4-0.4-0.3-0.5,0.2-1.1c1.7-1.6,3.3-3.1,5-5.3c0.6-0.7,0.8-1.3,1.1-1.7c0.2-0.4,0.4-1.2,0.3-1.6   c-0.4-1.1,0.4-1.7,1.4-1.9c0.7-0.2,1.6-0.2,1.9,0.2c0.5,0.3,0.7,1.7,1.5,2.1c0.5,0.5,3.1-0.5,3,2.5c-0.3,1.5-1,2.9-2.1,4.1   c-0.9,0.9-2.7,2.3-4.1,2.5c-0.8,0.1-1.7,0.1-1.7-0.3c-0.4,0-0.6-2.2-1.3-2.7c-0.6-0.4-0.9,0-1.3,0.4c-1,0.8-1.4,1.8-2.3,2.7   C174.4,38.4,173.6,38.5,173.2,38L173.2,38z M166.7,33c-0.7,1.5,0.7,1,1.6,0.5c0.5-0.2,1.2-0.7,1.9-1.2c3.7-2.5,5.8-5,8.8-7.6   c0.8-0.8,3.6-0.9,3.9-0.4c1.2,1.1,2.3,2.3,3.4,3.4c2.1,1.8,5.2,4.3,8,5.2c0.7,0.2,1.4,0.3,1.8,0c1.3-0.3,1.6-2.6,1.1-3.2   c-0.4-1.1-1.1-1.1-2-1.2c-1.4-0.1-3.8-0.5-4.5-0.9c-1-0.3-4.8-3-5.3-3.7c-0.7-0.4-0.4-0.6,0.2-0.7c0.6,0,1.4,0,1.8,0.2   c0.2,0.5,1.9,0.3,2.2-0.1c0.3-0.2,1.3-1.3,0.9-1.8c-0.1-1.4-7.1-1.2-7.7-1.1c-1.7,0-0.1-1.4,0.7-1.6c0.3-0.2,2.8-0.8,3.7-0.8   c1.1-0.1,1.1-2.7-0.3-2.4c-4.9,0-2.5-1.1-1.8-2.6c0.6-1.3,0.9-3.4,0.2-4c-0.4-0.8-1.6-1-2.1-0.6c-0.7,0.5-1.6,2.6-1.5,4.5   c0.1,1.4-0.8,3.5-2.7,3.3c-0.7-0.1-1.4-0.6-1.6-1.5c-0.2-0.8,1.9-2.6,1.5-3.9c-0.2-0.7-0.9-1.2-1.4-1.2c-0.8,0-2.9,1.5-3.3,2.3   c-0.9,0.9-0.3,2.3,0.2,2.7c0.2,0.5,2.3,0.7,2.3,2.3c-1.3,0.7-0.6,2.1,0,2.4c0.4,0.2,1.4,0.4,1.1,1.6c-0.2,0.8-4,1.4-4,1.8   c-0.3,0-1.8,3,1.1,3c0,0.2,0.1,0.1-0.1,0.3c0,0.4-3.5,3.1-4.1,3.5c-1.1,0.9-3.1,2.1-3.8,2.1C167.2,32,166.9,32.5,166.7,33L166.7,33   z M180.3,34.5c0.5,0.3,1.8,0.7,2.9-0.3c0.7-0.6,1.8-2.5,1.5-3c-0.3-0.4-1.8-0.4-2.9-0.2c-0.6,0.1-0.9,0.2-1.3,0.6   c-0.4,0.3-0.9,0.9-1.1,1.2C179,33.5,179.4,34,180.3,34.5L180.3,34.5z M186.8,13.5c0.5-0.3,1.1-0.6,1.3-0.8c0.5-0.7-0.7-1.6,0.1-2.5   c0.3-0.9,2.5-1,3.3-0.2c0.5,0.3,0.9,1.2,0.6,2.4c-0.6,1.7-3.3,1.5-4.9,1.6C186.7,14,185.7,14,186.8,13.5z"/>
	<path class="st0" d="M70,36.5c-0.3,0.3-2-2.5-2.1-3c0.1,0,0.6,0.1,1.2,0.2c1.7,0.3,3.3,0.2,5-0.2c1.4-0.3,2.4-0.4,3.8-0.6   c2-0.2,4.5-0.5,4.5-0.5c0.6,0-0.2-0.7-0.2-1.1c0-0.7,0.4-1.4,1.1-1.4c0.7-0.8,1.6-3.8,0.1-4.3c-0.3-0.2-0.9-1.1-1-1.5   c0-0.7,0.7-0.7,1.2-0.8c1.4-0.4,2.1-0.7,3.6-1.1c1.4-0.4,1.6-1.1,2-2.6c0-1.4-2.6,0.3-3.7,0.1c-1.1,0.1-0.7,1.1-2,0.7   c-1.8-0.6-2-1.9-1-3.1c0.9-1,0.9-1.9,1.6-2.9c0.1-0.2,0.9-1.2-0.3-1c-0.4,0.1-4.2,0.9-5.1,1c-0.5,0-0.8,0.2-0.8,0.6   c0.8,0.2,1.8,3.9,1.8,4.5c0,1-0.5,1.4-1,1.5c-0.7,0.2-3.1,0.9-3.5,1.1c-0.9,0.3-0.5,1.1-0.4,1.4c0.1,0.4,0.5,1.8,0.6,2   c0,0.1,0.2,0.3,0.8,0c0.5-0.3,0.7-0.5,0.8-0.5c0.8-0.4,0.1-1.4,1.2-1.8c0.5-0.2,1.3,0.4,1.6,1.2c0.2,0.3,0.9,1.5,0.4,2.5   c0,0.4-0.4,4.5,0,5c0.5,0.8-1.6,0.5-2.3-0.7c-0.8-1-0.5-3.3-0.9-2.9c-0.3,0.3-2.2,2.3-2.9,2.3c-1.4,0-1.7-1.4-1.8-1.8   c-0.4-2,0.8-1.3,0.7-2.3c-0.4-1.5-0.6-3.6-1.8-5c-0.5-0.7-0.2-1.2,0.4-1.4c0.8-0.2,4.6-0.9,4.7-1.2c0.2-0.5-0.5-1.4-0.2-2.2   c0,0,0.3-1.1,0.7-1.5c0-0.4-0.2-0.5-0.4-0.6c-0.2-0.1-0.5-0.1-0.7-0.1c-0.7,0-1.2-0.4-1.2-1.1c0-0.4,0-0.8-0.2-1.1   c0-0.3-0.4-0.8-0.7-1.3c-0.6-1-0.2-1.2,0.9-1.2c1.7,0,3.2,0.2,5,0.2c1.1,0,6.2-0.9,7.9-1.6c0.1,0,2-1.1,2-0.6c0.4,0,1,0.2,1.2,0.7   c0.7,0-0.1,2.9-0.6,2.8c0,0.9-4,1.4-4,1.5c-0.7,0,0.4,0.5,0.5,1.1c0,0.2,0,0.5,0,0.7c-0.1,0.2-0.3,1-0.4,1.7   c-0.1,0.7,0,1.3,0.8,0.9c0.6-0.2,1.4-0.8,1.4-0.7c0-0.4,1.4-0.9,1.9-0.7c0.5,0,1.9,0.6,2,1.2c0.7,0.9-0.6,3.8-1.1,4.2   c0,0-0.5,0.5-0.7,1c-0.4,0.7,0,0.9,0.2,1.5c0.2,0.3,0,0.5-1.5,0.5c-0.4,0.1-3.5,1.4-3.3,1.6c0.2,0.4,0.7,1.4,0.5,3   c-0.2,1.2-0.5,2.3-1.5,3c-0.3,0.2-0.6,0.5-0.1,0.5c0,0,6.8-0.5,6.8-0.7c0.1,0,1.4-0.5,1.6-0.2c0.2,0,1.4,0.6,1.6,1   c0.3,0.5,0.3,1.7-0.1,2c-0.4,0.9-4.2,0.6-4.8,0.3c-0.7-0.3-5,0-8.4,0.3c-2,0.2-3.3,0.2-5.3,0.6C73.7,36.1,70.4,36.6,70,36.5z"/>
	<path class="st0" d="M135.2,18.9c-0.1,0-0.6-0.8-1-1.2c-0.9-1.1-0.2-2.2,0.9-1.7c0.6,0.2,0.8,0.3,1.5,0.3c1.3,0,2.5-0.7,3.3-1.7   c0.2-0.4,0.2-0.6-0.1-0.6c-0.5-0.1-1.5-0.3-2-0.9c-0.9-1.5-0.1-3,0.9-3.6c0.4-0.2,1.4-0.6,2.3-0.4c2.2,0.4,2.6,2.8,0.9,3.9   c-0.4,0.4-0.5,0.9,0.5,0.9c0.8-0.1,1.8,0.6,2,1c0.5,0.9-0.9,1.4-1.6,1.6c-0.5,0.2-2.2,1.4-3.1,2.1   C138.9,19.1,136.8,20.3,135.2,18.9L135.2,18.9z M140,22.7c0.7-0.1,2.3-1.2,2.7-1.6c0.5-0.5,0.7-2.3-0.6-2c-1,0.2-1.8,0.8-2.7,1.1   c-0.4,0.1-0.7,0.1-0.9,0.2c-0.3,0.2-0.5,0.9-0.2,1.1C138.3,21.7,138.9,22.7,140,22.7L140,22.7z M138.7,31.5   c0.1-0.4,0.4-0.7,0.7-0.9c0.5-0.3,1.1-0.4,1.1,0c0.2,0.4,0,0.9-0.3,1.1c-0.2,0.2-0.6,0.5-0.9,0.6C138.7,32.5,138.5,32.2,138.7,31.5   L138.7,31.5z M136.4,35.3c0.7,1.4,2.1,0.7,2.7,0c0,0,0-0.2,0-0.4c0-0.5,0.6-0.4,0.7-0.2c0.6,0.7,2.7,0,3-2c0.2-1.2,0.4-2.2,0.6-3.4   c0.3-1.3,0.2-2-1.3-2.3c-0.9-0.2-1.3,0-1.8,0.8c-0.3,0.4-0.7,1-1.1,1.2c-0.2,0.1-0.5,0.2-0.5,0.2c-0.3,0.2-0.6-0.1-0.6-0.1   c-0.6-1.3-2.3-0.8-2.4,0.7c0,0.2-0.1,1.4,0,2.6C135.9,33.8,136.2,35.1,136.4,35.3L136.4,35.3z M141.8,25.5c0,0-1.6,1.1-2.7,1.5   c-0.9,0.4-2.1-0.5-2.5-1.3c-0.5-0.9-0.1-2.2,1.2-2.1c0.5,0,1.2,0,1.8,0c0.7,0,1.1-0.2,2-0.2C143.1,23.5,142.3,25.3,141.8,25.5z"/>
	<path class="st0" d="M149.3,27.5c-1.1,0.1-0.8-1.5-0.2-1.8c0.2-0.1,2.5-0.7,2.7-1.1c0.4-0.8,2.2-1.4,2.1,0c0,0.2-0.3,0.9-1.1,1.4   C151.8,26.7,149.9,27.4,149.3,27.5L149.3,27.5z M152.5,32.9c-0.6,0.1-1.2-0.2-1.8-0.7c-0.5-0.4-0.9-1.5,0-2.5c0-0.3,3-2.3,3-0.3   c-0.8,0.1-0.5,0.7-0.2,1.4C154,31.8,153.8,32.9,152.5,32.9L152.5,32.9z M157.1,36.5c2.3,0.3,3.4-0.7,2.9-2.5   c-0.3-1.7-4.9,0.8-5.2-0.2c-0.3-0.5,0.6-1.2,0.6-1.4c2-1.9,0.6-3.8-0.1-3.7c-1.7,0-1-2.5,0-2.8c1.7-0.1,1.3-2.8,1-2.8   c-0.3-1.3-2-1.8-2.6-2.8c-1.1-1.3,1.1-1.1,2,0c1.7,2,4.1,1.7,5.8,3.1c0.5,0.4,1.1,0.8,1.9,0.9c3.1,0.6,2.5-2.5,1.4-2.6   c0-0.1-1.8-0.6-3.3-1.1c-1.9-0.7-3.7-1.9-3.8-1.9c0-0.2,2.6-1.2,2.9-3c0.2-1,0.3-2.4-0.8-2.9c-0.5-0.2-1.1-0.2-1.1-0.5   c-0.1,0,0.1-1.3,0-2.1c0-0.6-0.4-1.4-0.9-1.7c-0.7-0.4-1.7-0.4-1.7,0.6c0,0.9,0.3,3.8-0.6,4.3c0,0.8,0.4,1.9,1.4,1.4   c0.5-0.3,0.9-0.7,0.9-0.8c2.5-1.2,1.2,1.1,0.8,1.1c0,0.3-2.6,2-2.9,2c-1.7-2.3-3.7-2.7-4.3-2.7c0.6-0.5,0.9-3,0.2-3.4   c-1.1-0.6-2,0.6-2.4,0.9c-0.7,0.6-1.6,0.9-2.2,0.8c0.3,0.8,2.2,0.9,2.2,1.2c0.3,0-0.3,2-1,2c0-0.1-0.1-0.2-0.2-0.5   c-0.2-0.5-0.5-0.9-1.1-0.7c-0.7,0.2-1.5,0.7-1.9,1.3c-0.8,1,0.6,1.4,1.3,1.8c0.4,0.2,0.7,0.5,0.7,0.9c0,0.9-2,3.4-3.1,3.6   c-0.3,0-0.7,0-1,0c0,0.9-0.2,1.1,1.1,0.7c3-0.8,5.1-4.1,6.6-6.8c0.7,0,2.5,1.1,2.5,2.3c0.1,0.7-0.2,0.7-0.8,0.5   c-0.5-0.2-1.1-0.1-1.6,0.1c-1.8,0.9-1.1,3.1-0.5,3.1c1.3,0.4-2.5,1.9-2.5,1c-1.7,0.1-1.3,2.9-0.9,3.9c0.4,1.1,1.6,2,1.6,2.1   c-1.1,0-1.5,3.1-0.1,3.6c-0.6,0.7-4.3,0.9-5,1.4c-0.6,0.4-0.8,1.2-0.7,1.4c0.3,0.7,1.6,0.7,2.2,0.6c1.4-0.2,3-0.7,5.3-0.8   C151.6,35.7,156.1,36.3,157.1,36.5z"/>
</g>
<path class="st0" d="M28.9,2.5c14.9,0,27,12.2,27,27s-12.1,27-27,27c-14.8,0-27-12.1-27-27C1.9,14.7,14.1,2.5,28.9,2.5L28.9,2.5z   M18,18.4h7.9l2.9-13c-13.3,0.1-24,10.8-24,24.1l13.2-3V18.4L18,18.4z M25.3,21.2h-4.7V26l3.8-0.8L25.3,21.2L25.3,21.2z M31.9,18.4  h8v8l13.2,2.9C53,16.2,42.2,5.4,29,5.4L31.9,18.4L31.9,18.4z M37.2,25.9v-4.7h-4.8l0.8,3.8L37.2,25.9L37.2,25.9z M39.9,32.5v8.2h-8  l-2.9,13c13.3-0.1,24-10.9,24.1-24.1L39.9,32.5L39.9,32.5z M32.5,38h4.7v-4.9L33.4,34L32.5,38L32.5,38z M26,40.7h-8v-8.1L4.8,29.7  c0.1,13.3,10.8,24,24.1,24L26,40.7L26,40.7z M20.6,33.2V38h4.7l-0.8-3.9L20.6,33.2L20.6,33.2z M28.8,29.6l-4.3-4l-18.2,4H28.8  L28.8,29.6z M28.9,29.5l4-4.3L28.9,7V29.5L28.9,29.5z M33.2,33.5l18.2-4H29L33.2,33.5L33.2,33.5z M28.9,29.5L28.9,29.5L28.9,29.5  L28.9,29.5L28.9,29.5L28.9,29.5z M24.9,33.9l4,18.2V29.6L24.9,33.9z"/>
<g>
	<path class="st0" d="M70.1,48.9c0-1,0.1-1.8,0.4-2.5c0.2-0.5,0.5-0.9,0.9-1.3c0.4-0.4,0.8-0.7,1.3-0.9c0.6-0.3,1.3-0.4,2.1-0.4   c1.4,0,2.6,0.4,3.5,1.3s1.3,2.1,1.3,3.7c0,1.6-0.4,2.8-1.3,3.7s-2,1.3-3.5,1.3s-2.6-0.4-3.5-1.3C70.5,51.6,70.1,50.4,70.1,48.9z    M72.1,48.8c0,1.1,0.3,2,0.8,2.5c0.5,0.6,1.2,0.9,2,0.9s1.4-0.3,1.9-0.9c0.5-0.6,0.8-1.4,0.8-2.6c0-1.1-0.2-2-0.7-2.5   c-0.5-0.6-1.1-0.8-2-0.8c-0.8,0-1.5,0.3-2,0.8C72.4,46.8,72.1,47.7,72.1,48.8z"/>
	<path class="st0" d="M83.3,53.7h-1.9v-7.1h1.7v1c0.3-0.5,0.6-0.8,0.8-0.9s0.5-0.2,0.8-0.2c0.4,0,0.8,0.1,1.2,0.4l-0.6,1.6   c-0.3-0.2-0.6-0.3-0.9-0.3s-0.5,0.1-0.7,0.2c-0.2,0.1-0.3,0.4-0.4,0.8s-0.2,1.2-0.2,2.4v2.1H83.3z"/>
	<path class="st0" d="M87.1,45.6v-1.7H89v1.7H87.1z M87.1,53.7v-7.1H89v7.1H87.1z"/>
	<path class="st0" d="M95.4,51.4l1.9,0.3c-0.2,0.7-0.6,1.2-1.1,1.6c-0.5,0.4-1.2,0.5-1.9,0.5c-1.2,0-2.1-0.4-2.7-1.2   c-0.5-0.6-0.7-1.5-0.7-2.4c0-1.2,0.3-2.1,0.9-2.8s1.4-1,2.3-1c1.1,0,1.9,0.3,2.5,1s0.9,1.8,0.9,3.2h-4.7c0,0.6,0.2,1,0.5,1.3   s0.7,0.5,1.1,0.5c0.3,0,0.5-0.1,0.7-0.2S95.3,51.8,95.4,51.4z M95.5,49.5c0-0.5-0.2-1-0.4-1.2c-0.3-0.3-0.6-0.4-1-0.4   s-0.7,0.1-1,0.4c-0.3,0.3-0.4,0.7-0.4,1.2H95.5z"/>
	<path class="st0" d="M105.7,53.7h-1.9v-3.6c0-0.8,0-1.3-0.1-1.5s-0.2-0.4-0.4-0.5c-0.2-0.1-0.4-0.2-0.7-0.2c-0.3,0-0.6,0.1-0.9,0.3   s-0.4,0.4-0.5,0.7s-0.1,0.8-0.1,1.6v3.2h-1.9v-7.1h1.7v1c0.6-0.8,1.4-1.2,2.3-1.2c0.4,0,0.8,0.1,1.1,0.2c0.3,0.1,0.6,0.3,0.8,0.6   c0.2,0.2,0.3,0.5,0.4,0.8s0.1,0.7,0.1,1.3L105.7,53.7L105.7,53.7z"/>
	<path class="st0" d="M111.2,46.6v1.5h-1.3V51c0,0.6,0,0.9,0,1s0.1,0.2,0.2,0.2s0.2,0.1,0.3,0.1c0.2,0,0.4-0.1,0.8-0.2l0.2,1.5   c-0.4,0.2-0.9,0.3-1.5,0.3c-0.3,0-0.6-0.1-0.9-0.2c-0.3-0.1-0.5-0.3-0.6-0.4c-0.1-0.2-0.2-0.4-0.3-0.7c0-0.2-0.1-0.7-0.1-1.3v-3.1   h-0.9v-1.5h0.9v-1.4l1.9-1.1v2.5L111.2,46.6L111.2,46.6z"/>
	<path class="st0" d="M114.2,48.8l-1.7-0.3c0.2-0.7,0.5-1.2,1-1.5s1.2-0.5,2.1-0.5c0.8,0,1.5,0.1,1.9,0.3s0.7,0.5,0.9,0.8   c0.2,0.3,0.3,0.9,0.3,1.7v2.2c0,0.6,0,1.1,0.1,1.4c0.1,0.3,0.2,0.6,0.3,1h-1.9c0-0.1-0.1-0.3-0.2-0.6c0-0.1-0.1-0.2-0.1-0.2   c-0.3,0.3-0.7,0.5-1,0.7c-0.4,0.2-0.8,0.2-1.2,0.2c-0.7,0-1.3-0.2-1.7-0.6c-0.4-0.4-0.6-0.9-0.6-1.5c0-0.4,0.1-0.8,0.3-1.1   c0.2-0.3,0.5-0.6,0.8-0.7c0.3-0.2,0.8-0.3,1.5-0.4c0.9-0.2,1.5-0.3,1.8-0.5V49c0-0.4-0.1-0.6-0.3-0.8c-0.2-0.2-0.5-0.2-1-0.2   c-0.3,0-0.6,0.1-0.8,0.2C114.5,48.2,114.4,48.4,114.2,48.8z M116.8,50.3c-0.2,0.1-0.6,0.2-1.1,0.3s-0.9,0.2-1,0.3   c-0.2,0.2-0.4,0.4-0.4,0.7s0.1,0.5,0.3,0.7c0.2,0.2,0.4,0.3,0.7,0.3c0.3,0,0.7-0.1,1-0.3c0.2-0.2,0.4-0.4,0.4-0.6   c0-0.2,0.1-0.5,0.1-0.9V50.3z"/>
	<path class="st0" d="M120.8,53.7v-9.8h1.9v9.8H120.8z"/>
	<path class="st0" d="M128.6,50.5l1.9-0.2c0.1,0.6,0.4,1.1,0.7,1.4c0.4,0.3,0.8,0.5,1.4,0.5c0.6,0,1.1-0.1,1.4-0.4   c0.3-0.3,0.5-0.6,0.5-0.9c0-0.2-0.1-0.4-0.2-0.6c-0.1-0.2-0.4-0.3-0.7-0.4c-0.2-0.1-0.8-0.2-1.6-0.4c-1.1-0.3-1.8-0.6-2.2-1   c-0.6-0.5-0.9-1.2-0.9-2c0-0.5,0.1-1,0.4-1.4c0.3-0.4,0.7-0.8,1.2-1s1.2-0.3,1.9-0.3c1.2,0,2.2,0.3,2.8,0.8s0.9,1.3,1,2.2l-2,0.1   c-0.1-0.5-0.3-0.9-0.5-1.1c-0.3-0.2-0.7-0.3-1.3-0.3s-1,0.1-1.4,0.4c-0.2,0.2-0.3,0.4-0.3,0.6c0,0.2,0.1,0.4,0.3,0.6   c0.2,0.2,0.9,0.4,1.8,0.7c1,0.2,1.7,0.5,2.1,0.7c0.5,0.2,0.8,0.6,1.1,1s0.4,0.9,0.4,1.6c0,0.6-0.2,1.1-0.5,1.6s-0.8,0.9-1.3,1.1   s-1.3,0.4-2.1,0.4c-1.2,0-2.2-0.3-2.9-0.9C129.1,52.4,128.7,51.6,128.6,50.5z"/>
	<path class="st0" d="M142.7,51.4l1.9,0.3c-0.2,0.7-0.6,1.2-1.1,1.6c-0.5,0.4-1.2,0.5-1.9,0.5c-1.2,0-2.1-0.4-2.7-1.2   c-0.5-0.6-0.7-1.5-0.7-2.4c0-1.2,0.3-2.1,0.9-2.8s1.4-1,2.3-1c1.1,0,1.9,0.3,2.5,1s0.9,1.8,0.9,3.2H140c0,0.6,0.2,1,0.5,1.3   s0.7,0.5,1.1,0.5c0.3,0,0.5-0.1,0.7-0.2C142.4,52.1,142.6,51.8,142.7,51.4z M142.8,49.5c0-0.5-0.2-1-0.4-1.2   c-0.3-0.3-0.6-0.4-1-0.4s-0.7,0.1-1,0.4c-0.3,0.3-0.4,0.7-0.4,1.2H142.8z"/>
	<path class="st0" d="M152.7,48.7l-1.9,0.3c-0.1-0.4-0.2-0.6-0.4-0.8s-0.5-0.3-0.9-0.3c-0.5,0-0.8,0.2-1.1,0.5S148,49.3,148,50   c0,0.8,0.1,1.4,0.4,1.8c0.3,0.3,0.7,0.5,1.1,0.5c0.4,0,0.6-0.1,0.9-0.3c0.2-0.2,0.4-0.6,0.5-1l1.8,0.3c-0.2,0.8-0.6,1.5-1.1,1.9   s-1.3,0.6-2.2,0.6c-1,0-1.9-0.3-2.5-1s-0.9-1.6-0.9-2.7c0-1.2,0.3-2.1,0.9-2.7c0.6-0.7,1.5-1,2.5-1c0.9,0,1.6,0.2,2.1,0.6   C152.1,47.4,152.5,47.9,152.7,48.7z"/>
	<path class="st0" d="M159.2,53.7v-1.1c-0.3,0.4-0.6,0.7-1,0.9s-0.9,0.3-1.3,0.3c-0.5,0-0.9-0.1-1.3-0.3c-0.4-0.2-0.7-0.5-0.8-0.9   c-0.2-0.4-0.3-0.9-0.3-1.6v-4.5h1.9v3.3c0,1,0,1.6,0.1,1.8s0.2,0.4,0.4,0.5s0.4,0.2,0.7,0.2s0.6-0.1,0.9-0.3   c0.3-0.2,0.4-0.4,0.5-0.7s0.1-0.9,0.1-1.9v-3h1.9v7.1h-1.8V53.7z"/>
	<path class="st0" d="M165,53.7h-1.9v-7.1h1.7v1c0.3-0.5,0.6-0.8,0.8-0.9c0.2-0.2,0.5-0.2,0.8-0.2c0.4,0,0.8,0.1,1.2,0.4l-0.6,1.6   c-0.3-0.2-0.6-0.3-0.9-0.3c-0.3,0-0.5,0.1-0.7,0.2c-0.2,0.1-0.3,0.4-0.4,0.8c-0.1,0.4-0.2,1.2-0.2,2.4v2.1H165z"/>
	<path class="st0" d="M168.9,45.6v-1.7h1.9v1.7H168.9z M168.9,53.7v-7.1h1.9v7.1H168.9z"/>
	<path class="st0" d="M176.3,46.6v1.5H175V51c0,0.6,0,0.9,0,1s0.1,0.2,0.2,0.2s0.2,0.1,0.3,0.1c0.2,0,0.4-0.1,0.8-0.2l0.2,1.5   c-0.4,0.2-0.9,0.3-1.5,0.3c-0.3,0-0.6-0.1-0.9-0.2c-0.3-0.1-0.5-0.3-0.6-0.4c-0.1-0.2-0.2-0.4-0.3-0.7c0-0.2-0.1-0.7-0.1-1.3v-3.1   h-0.9v-1.5h0.9v-1.4l1.9-1.1v2.5L176.3,46.6L176.3,46.6z"/>
	<path class="st0" d="M177.9,45.6v-1.7h1.9v1.7H177.9z M177.9,53.7v-7.1h1.9v7.1H177.9z"/>
	<path class="st0" d="M186.2,51.4l1.9,0.3c-0.2,0.7-0.6,1.2-1.1,1.6c-0.5,0.4-1.2,0.5-1.9,0.5c-1.2,0-2.1-0.4-2.7-1.2   c-0.5-0.6-0.7-1.5-0.7-2.4c0-1.2,0.3-2.1,0.9-2.8c0.6-0.7,1.4-1,2.3-1c1.1,0,1.9,0.3,2.5,1s0.9,1.8,0.9,3.2h-4.7   c0,0.6,0.2,1,0.5,1.3s0.7,0.5,1.1,0.5c0.3,0,0.5-0.1,0.7-0.2C185.9,52.1,186.1,51.8,186.2,51.4z M186.3,49.5c0-0.5-0.2-1-0.4-1.2   c-0.3-0.3-0.6-0.4-1-0.4s-0.7,0.1-1,0.4c-0.3,0.3-0.4,0.7-0.4,1.2H186.3z"/>
	<path class="st0" d="M189.4,51.7l1.9-0.3c0.1,0.4,0.2,0.6,0.5,0.8c0.2,0.2,0.6,0.3,1,0.3c0.5,0,0.9-0.1,1.1-0.3   c0.2-0.1,0.2-0.3,0.2-0.5c0-0.1,0-0.3-0.1-0.4c-0.1-0.1-0.3-0.2-0.6-0.2c-1.5-0.3-2.5-0.6-2.9-0.9c-0.6-0.4-0.8-0.9-0.8-1.6   c0-0.6,0.2-1.1,0.7-1.6c0.5-0.4,1.2-0.6,2.3-0.6c1,0,1.7,0.2,2.2,0.5s0.8,0.8,1,1.4l-1.8,0.3c-0.1-0.3-0.2-0.5-0.4-0.6   s-0.5-0.2-0.9-0.2c-0.5,0-0.8,0.1-1.1,0.2c-0.1,0.1-0.2,0.2-0.2,0.4c0,0.1,0.1,0.2,0.2,0.3c0.2,0.1,0.8,0.3,1.8,0.5   s1.7,0.5,2.1,0.8c0.4,0.3,0.6,0.8,0.6,1.4c0,0.7-0.3,1.2-0.8,1.7s-1.3,0.7-2.4,0.7c-1,0-1.7-0.2-2.3-0.6   C189.9,52.9,189.5,52.3,189.4,51.7z"/>
</g>
</svg>